<svg width="1088" height="885" viewBox="0 0 1088 885" fill="none" xmlns="http://www.w3.org/2000/svg">
<path d="M1074.08 192.453H747.935V162.421H661.426V192.453H351.651H329.631V228.644H351.651V308.294L300.981 288.651H225.047L173.61 337.162L123.847 288.651L14.5169 305.171L7.53762 502.422H53.88L56.3926 543.382H63.4417V568.332V586.755V782.16H54.1243L0 791.754V832.345H46.0981L99.9084 825.22L100.397 832.345H160V787.127V782.216V586.84H193.954V782.216V787.127V832.345H253.557L254.046 825.22L307.856 832.345H353.954V791.754L299.76 782.216H290.513V586.84V568.389V543.438H299.062L310.089 361.772L351.651 377.072V585.846H670.465V652.353L494.517 813.809H557.749L676.536 704.696V813.809H712.864V704.809L831.477 813.809H895.721L718.796 652.353V585.846H1074.11V228.673H1088V192.453H1074.08ZM1042.95 559.192H718.726H670.465H382.814V388.511L512.523 436.255L512.035 370.486L382.814 320.386V228.673H1042.95V559.192Z" fill="white"/>
<path d="M173.981 285.861C230.845 284.826 268.386 232.814 268.217 155.194C268.108 99.3823 231.083 66.723 169.483 68.0383C110.158 69.3729 77.4316 101.336 78.0075 157.361C78.9209 238.027 115.43 286.924 173.981 285.861Z" fill="white"/>
<path d="M641.954 389.675V472.418C641.954 472.418 678.875 462.001 714.888 472.078C750.866 482.183 811.795 511.987 811.795 511.987C811.795 511.987 830.36 487.377 852.135 475.966C873.876 464.584 890.661 455.841 890.661 455.841V391.86L823.59 440.059L641.954 389.675Z" fill="#0F73B2"/>
<path d="M572.441 430.72H559.285V476.023H605.383V430.72H591.494V367.846L821.287 427.74L967.573 321.607L729.754 265.858L542.814 355.158L572.441 362.907V430.72Z" fill="#0F73B2"/>
<path d="M191.5 453.464L173.5 338L155.5 453.464L173.5 478L191.5 453.464Z" fill="#0F73B2"/>
</svg>
