<svg width="1013" height="863" viewBox="0 0 1013 863" fill="none" xmlns="http://www.w3.org/2000/svg">
<rect x="310" y="50" width="44" height="106" rx="10" fill="#0F73B2"/>
<rect x="687" y="50" width="44" height="106" rx="10" fill="#0F73B2"/>
<rect x="84" y="128" width="800" height="602" rx="40" fill="white"/>
<ellipse cx="337.094" cy="319.121" rx="86.59" ry="90.1208" fill="#0F73B2"/>
<path fill-rule="evenodd" clip-rule="evenodd" d="M157 629H507C507 528.41 428.65 446.865 332 446.865C235.35 446.865 157 528.41 157 629Z" fill="#0F73B2"/>
<path fill-rule="evenodd" clip-rule="evenodd" d="M824.795 510.061C825.559 509.624 826 508.979 826 508.3C826 507.03 824.491 506 822.629 506H597.234C594.343 506 592 507.598 592 509.57C592 510.631 592.692 511.637 593.889 512.315L703.769 574.588C706.163 575.945 709.638 575.939 712.023 574.575L824.795 510.061ZM602.556 530.554C598.36 528.176 592 530.211 592 533.933V624.607C592 627.033 594.883 629 598.44 629H819.56C823.116 629 826 627.033 826 624.607V532.168C826 528.437 819.612 526.404 815.421 528.802L712.755 587.534L712.068 587.927C709.683 589.291 706.208 589.297 703.814 587.94L703.125 587.549L602.556 530.554Z" fill="#0F73B2"/>
<path d="M662.089 296.066C677.036 336.84 692.509 353.108 731.874 370.436L714.814 394.395C669.612 372.754 647.097 336.274 636.494 307.806L662.089 296.066Z" fill="#0F73B2"/>
<path d="M674.628 239.774C682.62 239.743 688.697 246.393 688.152 253.924C687.295 265.774 688.208 274.324 690.666 284.922C692.016 290.744 688.961 296.656 684.108 300.465C677.565 305.598 672.567 312.138 668.595 317.768C663.089 325.572 644.141 325.011 639.951 316.51C631.339 299.038 625.503 266.849 638.079 245.101C640.054 241.685 644.031 239.894 648.153 239.878L674.628 239.774Z" fill="#0F73B2"/>
<path d="M795.948 369.067C796.942 361.578 790.682 355.081 782.701 354.686C770.141 354.064 761.263 352.18 750.418 348.602C744.461 346.636 737.879 348.788 733.292 352.881C727.109 358.397 719.633 362.297 713.237 365.344C704.371 369.567 702.682 387.399 711.115 392.35C728.445 402.526 761.58 411.868 785.953 402.693C789.782 401.252 792.143 397.739 792.655 393.877L795.948 369.067Z" fill="#0F73B2"/>
</svg>
