<svg width="800" height="800" viewBox="0 0 800 800" fill="none" xmlns="http://www.w3.org/2000/svg">
<path d="M666.667 200H566.667V133.333C566.667 115.652 559.643 98.6953 547.14 86.1929C534.638 73.6905 517.681 66.6667 500 66.6667H300C282.319 66.6667 265.362 73.6905 252.86 86.1929C240.357 98.6953 233.333 115.652 233.333 133.333V200H133.333C115.652 200 98.6953 207.024 86.1929 219.526C73.6905 232.029 66.6667 248.986 66.6667 266.667V666.667C66.6667 684.348 73.6905 701.305 86.1929 713.807C98.6953 726.31 115.652 733.333 133.333 733.333H666.667C684.348 733.333 701.305 726.31 713.807 713.807C726.31 701.305 733.333 684.348 733.333 666.667V266.667C733.333 248.986 726.31 232.029 713.807 219.526C701.305 207.024 684.348 200 666.667 200ZM300 133.333H500V200H300V133.333Z" fill="white"/>
<path d="M721.333 228.667C715.207 219.836 707.036 212.617 697.518 207.625C687.999 202.634 677.415 200.018 666.667 200H133.333C122.585 200.018 112.001 202.634 102.482 207.625C92.9637 212.617 84.793 219.836 78.6667 228.667C75.2186 233.434 73.0939 239.03 72.5084 244.884C71.923 250.739 72.8976 256.644 75.3333 262L133.333 400C146.345 429.813 167.795 455.167 195.042 472.936C222.288 490.705 254.138 500.113 286.667 500H510.667C543.646 500.64 576.075 491.479 603.845 473.678C631.615 455.876 653.478 430.235 666.667 400L726 261.667C728.186 256.24 728.906 250.334 728.087 244.542C727.268 238.749 724.939 233.274 721.333 228.667Z" fill="#0F73B2"/>
<path d="M433.333 400H366.667C348.257 400 333.333 414.924 333.333 433.333V500C333.333 518.409 348.257 533.333 366.667 533.333H433.333C451.743 533.333 466.667 518.409 466.667 500V433.333C466.667 414.924 451.743 400 433.333 400Z" fill="white"/>
</svg>
